<svg width="61" height="38" viewBox="0 0 61 38" fill="none" xmlns="http://www.w3.org/2000/svg">
<path d="M22.8063 19.5388H19.7044C18.3831 19.5388 17.3108 20.6111 17.3108 21.9323C17.3108 23.2535 18.3831 24.3258 19.7044 24.3258H23.6791C24.3481 24.3258 24.9323 24.7662 25.1652 25.3934C25.9151 27.412 27.0091 29.2641 28.3752 30.8776C29.0757 31.7042 28.4981 32.9712 27.4146 32.9712H24.2057C23.0601 32.9712 22.0723 33.852 22.0181 34.9977C21.9606 36.22 22.9356 37.23 24.1451 37.23H39.888C40.7241 37.3465 41.5762 37.4071 42.4443 37.4071C52.7013 37.4071 61.0035 29.0251 60.8711 18.7346C60.7418 8.78557 52.6199 0.67158 42.6709 0.550309C41.2762 0.532756 39.9167 0.67158 38.6083 0.949227C35.4808 1.61303 32.2878 1.9194 29.0917 1.9194H13.8339C12.5446 1.9194 11.434 2.91031 11.3734 4.19961C11.3079 5.57508 12.4042 6.7112 13.7653 6.7112H23.5707C25.5956 6.7112 26.9168 8.8478 26.0009 10.6525C25.9897 10.6733 25.9801 10.694 25.969 10.7147C25.5094 11.6322 24.568 12.2099 23.5404 12.2099H10.9936C9.70428 12.2099 8.59369 13.2008 8.53306 14.4901C8.46763 15.8656 9.56386 17.0017 10.925 17.0017H22.8047C23.5244 17.0017 24.0988 17.5985 24.0717 18.3181C24.0462 18.9995 23.4861 19.5372 22.8047 19.5372L22.8063 19.5388ZM37.2759 7.9287C37.4418 5.35169 39.5354 3.26136 42.1124 3.10019C45.2383 2.90552 47.8121 5.48093 47.6143 8.60686C47.4515 11.1855 45.3596 13.2774 42.7794 13.4401C39.6487 13.638 37.0716 11.0562 37.2743 7.9271L37.2759 7.9287ZM26.912 16.1815C26.7189 13.0556 29.2943 10.4834 32.4203 10.6812C35.0005 10.844 37.0924 12.9375 37.2536 15.5177C37.4498 18.6484 34.8664 21.2238 31.7373 21.0212C29.1603 20.8536 27.0716 18.7601 26.9104 16.1831L26.912 16.1815ZM40.9427 28.082C40.78 30.6606 38.6881 32.7526 36.1095 32.9153C32.9787 33.1132 30.3985 30.5314 30.6012 27.4023C30.7687 24.8237 32.8623 22.7349 35.4409 22.5738C38.5668 22.3791 41.139 24.9561 40.9427 28.082ZM42.7427 20.6749C41.5667 20.8712 40.5614 19.8707 40.7513 18.6947C40.8662 17.983 41.4374 17.407 42.1491 17.2873C43.3251 17.091 44.3335 18.0899 44.1437 19.2675C44.0288 19.9808 43.4559 20.5568 42.7427 20.6765V20.6749ZM54.2921 28.0788C54.131 30.6574 52.0406 32.751 49.462 32.9153C46.3313 33.1164 43.7511 30.5346 43.9522 27.4055C44.1165 24.8285 46.2069 22.7365 48.7839 22.5738C51.9082 22.3759 54.4868 24.9529 54.2921 28.0788ZM52.8098 21.0324C49.9471 21.0324 47.627 18.7122 47.627 15.8528C47.627 12.9934 50.1498 10.4738 53.18 10.6844C55.7362 10.8615 57.8058 12.9343 57.9797 15.4906C58.1856 18.5176 55.7905 21.0339 52.8114 21.0339L52.8098 21.0324Z" fill="#9534D2"/>
<rect x="13.5825" y="33.0503" width="6.42883" height="4.28589" rx="2.14294" fill="#9534D2"/>
<rect x="0.90332" y="1.97754" width="8.03604" height="4.64304" rx="2.27732" fill="#9534D2"/>
</svg>
